<svg xmlns="http://www.w3.org/2000/svg" width="238.391" height="40.815" viewBox="0 0 238.391 40.815">
  <g id="Group_6" data-name="Group 6" transform="translate(-160 -262)">
    <g id="Group_5" data-name="Group 5" transform="translate(160 262)">
      <g id="Group_1" data-name="Group 1" transform="translate(228.9 16.297)">
        <path id="Path_1" data-name="Path 1" d="M2556.781,225.677a4.758,4.758,0,1,1,4.739-4.764A4.792,4.792,0,0,1,2556.781,225.677Zm0-8.828a4.066,4.066,0,1,0,4.075,4.069A4.075,4.075,0,0,0,2556.781,216.848Z" transform="translate(-2552.03 -216.16)" fill="#fff"/>
        <path id="Path_2" data-name="Path 2" d="M2563.479,226.477a1.563,1.563,0,0,0-.517-.4,1.47,1.47,0,0,0,.938-.453,1.178,1.178,0,0,0,.326-.874,1.323,1.323,0,0,0-.222-.745,1.029,1.029,0,0,0-.539-.459,3.45,3.45,0,0,0-1.093-.106h-2v4.708h.952v-1.968h.161a1.375,1.375,0,0,1,.493.049.583.583,0,0,1,.292.2,7.266,7.266,0,0,1,.5.683l.7,1.035h1.154l-.6-.922A4.708,4.708,0,0,0,2563.479,226.477Zm-1.464-1.055h-.692v-1.191h.727c.393,0,.608.011.7.011a.465.465,0,0,1,.374.194.583.583,0,0,1,.107.363.819.819,0,0,1-.079.362,1,1,0,0,1-.271.2A3.022,3.022,0,0,1,2562.015,225.422Z" transform="translate(-2557.622 -221.042)" fill="#fff"/>
      </g>
      <g id="Group_4" data-name="Group 4" transform="translate(0 0)">
        <g id="Group_2" data-name="Group 2" transform="translate(130.531 29.353)">
          <path id="Path_3" data-name="Path 3" d="M2472.509,271.269h.025l0,.023C2472.528,271.284,2472.519,271.281,2472.509,271.269Z" transform="translate(-2400.348 -266.163)" fill="#fff"/>
          <path id="Path_4" data-name="Path 4" d="M2261.381,266.045a4.539,4.539,0,0,1-1.278,2.556,3.332,3.332,0,0,1-2.348.947h-1.95l-.429,2.438h-1.823l1.613-9.127h3.59a2.616,2.616,0,0,1,2.213.9A2.834,2.834,0,0,1,2261.381,266.045Zm-1.836.105a1.63,1.63,0,0,0-.3-1.377,1.532,1.532,0,0,0-1.235-.534h-1.267l-.7,3.9h1.4a1.891,1.891,0,0,0,1.353-.547A2.56,2.56,0,0,0,2259.545,266.15Z" transform="translate(-2253.553 -260.524)" fill="#fff"/>
          <path id="Path_5" data-name="Path 5" d="M2289.115,266.179a4.08,4.08,0,0,1-1.578,2.683,4.854,4.854,0,0,1-2.937.848,3.689,3.689,0,0,1-2.582-.772,2.882,2.882,0,0,1-.635-2.78,3.635,3.635,0,0,1,1.646-2.484,5.013,5.013,0,0,1,2.819-.816,3.663,3.663,0,0,1,2.643.873A2.6,2.6,0,0,1,2289.115,266.179Zm-2-.013a1.691,1.691,0,0,0-.278-1.363,1.5,1.5,0,0,0-1.289-.554,2.064,2.064,0,0,0-1.424.567,2.4,2.4,0,0,0-.767,1.415,2,2,0,0,0,.253,1.565,1.464,1.464,0,0,0,1.261.589,1.983,1.983,0,0,0,1.529-.614A3.041,3.041,0,0,0,2287.118,266.167Z" transform="translate(-2272.155 -260.524)" fill="#fff"/>
          <path id="Path_6" data-name="Path 6" d="M2320.194,262.858l-3.383,6.69h-2.3l-.482-4.432-2.095,4.432h-2.273l-1.1-6.69h2.075l.561,4.584,2.176-4.584h2.115l.473,4.738,2.167-4.738Z" transform="translate(-2290.429 -260.524)" fill="#fff"/>
          <path id="Path_7" data-name="Path 7" d="M2349.366,269.581h-3.153a2.1,2.1,0,0,1-1.82-.98,2.933,2.933,0,0,1-.439-2.282,4.263,4.263,0,0,1,1.344-2.438,3.321,3.321,0,0,1,2.242-1.023h3l-.243,1.381h-2.2a3.363,3.363,0,0,0-.711.071,1.7,1.7,0,0,0-.587.278,1.609,1.609,0,0,0-.633,1.047h3.865l-.241,1.4h-3.871a1.615,1.615,0,0,0-.023.52.864.864,0,0,0,.209.426.906.906,0,0,0,.485.284,2.929,2.929,0,0,0,.728.072h2.27Z" transform="translate(-2314.119 -260.524)" fill="#fff"/>
          <path id="Path_8" data-name="Path 8" d="M2371.017,264.093h-2l-.915,5.242h-1.787l1.177-6.69h1.784l-.166.928a2.468,2.468,0,0,1,.452-.57,1.748,1.748,0,0,1,.6-.326c.113-.038.23-.067.347-.1a2.049,2.049,0,0,1,.371-.041,1.705,1.705,0,0,1,.41.055Z" transform="translate(-2329.149 -260.311)" fill="#fff"/>
          <path id="Path_9" data-name="Path 9" d="M2406.251,267.457a2.532,2.532,0,0,1-.812,1.462,2.136,2.136,0,0,1-1.489.61h-4.429l.209-1.215h3.634a1.264,1.264,0,0,0,.687-.193.823.823,0,0,0,.362-.556c.094-.564-.234-.842-.988-.842h-1.854a1.31,1.31,0,0,1-1.046-.564,1.463,1.463,0,0,1-.332-1.227,2.912,2.912,0,0,1,.676-1.5,1.951,1.951,0,0,1,1.517-.64h4.257l-.217,1.262h-3.8a.586.586,0,0,0-.42.212.966.966,0,0,0-.244.484.63.63,0,0,0,.121.508.59.59,0,0,0,.469.217h2a1.677,1.677,0,0,1,1.4.562A1.731,1.731,0,0,1,2406.251,267.457Z" transform="translate(-2351.414 -260.478)" fill="#fff"/>
          <path id="Path_10" data-name="Path 10" d="M2430.952,262.858l-1.241,6.972a2.058,2.058,0,0,1-.324.8,2.9,2.9,0,0,1-.584.619,3.155,3.155,0,0,1-1.023.529,4.409,4.409,0,0,1-1.174.144h-3.512l.243-1.4H2427a1.011,1.011,0,0,0,.892-.721l.047-.259h-2.075a3.123,3.123,0,0,1-.981-.136,1.6,1.6,0,0,1-.711-.523,1.938,1.938,0,0,1-.4-1.667l.773-4.364h1.892l-.771,4.279a1.907,1.907,0,0,0-.033.377.512.512,0,0,0,.135.289.631.631,0,0,0,.3.212,1.521,1.521,0,0,0,.475.065h1.65l.922-5.221Z" transform="translate(-2367.218 -260.524)" fill="#fff"/>
          <path id="Path_11" data-name="Path 11" d="M2455.628,267.457a2.545,2.545,0,0,1-.8,1.462,2.136,2.136,0,0,1-1.492.61H2448.9l.221-1.215h3.628a1.246,1.246,0,0,0,.685-.193.821.821,0,0,0,.361-.556c.1-.564-.232-.842-.989-.842h-1.847a1.318,1.318,0,0,1-1.049-.564,1.511,1.511,0,0,1-.346-1.227,3.072,3.072,0,0,1,.685-1.5,1.979,1.979,0,0,1,1.524-.64h4.258l-.219,1.262h-3.8a.551.551,0,0,0-.412.212.909.909,0,0,0-.256.484.607.607,0,0,0,.125.508.6.6,0,0,0,.472.217h2.005a1.562,1.562,0,0,1,1.683,1.984Z" transform="translate(-2384.518 -260.478)" fill="#fff"/>
          <path id="Path_12" data-name="Path 12" d="M2478.767,259.5h-1.739l-.544,3.038a.8.8,0,0,0,.168.687,1.116,1.116,0,0,0,.8.266h.53l-.223,1.308h-1.674a1.412,1.412,0,0,1-1.181-.547,1.3,1.3,0,0,1-.278-.707,4.583,4.583,0,0,1,.074-.915l.551-3.129h-1.137l.246-1.392h1.139l.409-2.334h1.77l-.412,2.334h1.743Z" transform="translate(-2401.426 -255.776)" fill="#fff"/>
          <path id="Path_13" data-name="Path 13" d="M2496.452,269.581H2493.3a2.106,2.106,0,0,1-1.824-.98,3.016,3.016,0,0,1-.443-2.282,4.3,4.3,0,0,1,1.354-2.438,3.327,3.327,0,0,1,2.239-1.023h3l-.24,1.381h-2.2a3.379,3.379,0,0,0-.718.071,1.68,1.68,0,0,0-.583.278,1.638,1.638,0,0,0-.639,1.047h3.875l-.248,1.4H2493a2.072,2.072,0,0,0-.019.52.841.841,0,0,0,.218.426.882.882,0,0,0,.474.284,2.994,2.994,0,0,0,.732.072h2.268Z" transform="translate(-2412.731 -260.524)" fill="#fff"/>
          <path id="Path_14" data-name="Path 14" d="M2523,269.548h-1.74l.738-4.185a1.15,1.15,0,0,0,.013-.39.676.676,0,0,0-.154-.3.735.735,0,0,0-.265-.235.816.816,0,0,0-.355-.071h-1.278l-.911,5.179h-1.767l.92-5.215h-2.062l-.917,5.215H2513.4l1.18-6.69h7.167a3.546,3.546,0,0,1,1.036.122,1.43,1.43,0,0,1,.671.526,2.448,2.448,0,0,1,.346.627,1.369,1.369,0,0,1,.041.671Z" transform="translate(-2427.759 -260.524)" fill="#fff"/>
          <path id="Path_15" data-name="Path 15" d="M2554.769,267.457a2.486,2.486,0,0,1-.811,1.462,2.116,2.116,0,0,1-1.489.61h-4.435l.222-1.215h3.631a1.222,1.222,0,0,0,.681-.193.8.8,0,0,0,.365-.556c.1-.564-.231-.842-.987-.842h-1.85a1.314,1.314,0,0,1-1.05-.564,1.489,1.489,0,0,1-.337-1.227,2.988,2.988,0,0,1,.677-1.5,2,2,0,0,1,1.525-.64h4.262l-.22,1.262h-3.8a.591.591,0,0,0-.42.212.928.928,0,0,0-.244.484.593.593,0,0,0,.594.725h2a1.681,1.681,0,0,1,1.393.562A1.7,1.7,0,0,1,2554.769,267.457Z" transform="translate(-2450.982 -260.478)" fill="#fff"/>
        </g>
        <g id="Group_3" data-name="Group 3">
          <path id="Path_16" data-name="Path 16" d="M1857.489,171.644h10.8l-4.151,19.087h8.161l4.142-19.087h11.444l.8-4.934h-30.393Z" transform="translate(-1857.489 -166.71)" fill="#fff"/>
          <path id="Path_17" data-name="Path 17" d="M1975.785,180.531c-.355,1.667-1.148,3.623-2.4,4.488-1.461.979-3.031.964-6.356.964a10.028,10.028,0,0,1-4.7-.931c-1.623-.853-1.713-2.226-1.317-4.117l3.111-14.225h-8.568l-3.33,15.694q-.964,4.609,3.842,6.747,3.762,1.692,10.582,1.7a30.874,30.874,0,0,0,10.59-1.468c3.634-1.326,6.011-3.617,6.681-6.812l3.393-15.858h-8.459Z" transform="translate(-1920.895 -166.71)" fill="#fff"/>
          <path id="Path_18" data-name="Path 18" d="M2204.136,183.437l-10.266-16.727h-10.685l-5.219,23.959h8.051l3.959-16.525,10.585,16.525,10.516-.079,5.482-23.88h-8.719Z" transform="translate(-2072.347 -166.71)" fill="#fff"/>
          <path id="Path_19" data-name="Path 19" d="M2300.965,190.688l9.02.046,5.382-24.024h-9.154Z" transform="translate(-2154.808 -166.71)" fill="#fff"/>
          <path id="Path_20" data-name="Path 20" d="M2359.358,170.279a12.768,12.768,0,0,0-6.132,8.451,9.557,9.557,0,0,0,1.8,8.378,10.893,10.893,0,0,0,8.262,3.7l21.45-.134,2.947-14.1-18.753.009-.645,4.434,10.31-.074-1.222,4.935-9.81.072c-2.37,0-3.676.082-4.706-1.644a7.4,7.4,0,0,1-.674-5.47,7.633,7.633,0,0,1,3.245-4.9,10.1,10.1,0,0,1,5.94-1.93l17.3.066,1.155-5.354h-21.537C2365,167.082,2362.314,168.473,2359.358,170.279Z" transform="translate(-2189.661 -166.71)" fill="#fff"/>
          <path id="Path_21" data-name="Path 21" d="M2498.115,166.71l-9.836,9.146-6.052-9.146H2472.3l10.581,13.919-2.187,10.1,8.3,0,2.294-10.585,16.016-11.934.3-1.5Z" transform="translate(-2269.675 -166.71)" fill="#fff"/>
          <path id="Path_22" data-name="Path 22" d="M2065.592,190.731l7.859-.062,2.075-8.9,7.7-.023,6.021,8.92,9.438.062-6.36-9.58a13.572,13.572,0,0,0,6-2.288,6.764,6.764,0,0,0,2.977-4.4,5.857,5.857,0,0,0-1.762-5.393c-1.219-1.354-3.619-2.122-5.573-2.36h-23.3Zm12.26-19.069h8.8c1.9,0,3.188.052,4.186.636a1.672,1.672,0,0,1,.712,1.915,3.194,3.194,0,0,1-2.046,2.716,8.773,8.773,0,0,1-3.849.686h-9.2Z" transform="translate(-1997.007 -166.71)" fill="#fff"/>
        </g>
      </g>
    </g>
  </g>
</svg>
